Coordinates
version=1
nRows=29
nColumns=22
inDegrees=yes

Units are S.I. units (second, meters, Newtons, ...)
If the header above contains a line with 'inDegrees', this indicates whether rotational values are in degrees (yes) or radians (no).

endheader
time	pelvis_tilt	pelvis_list	pelvis_rotation	pelvis_tx	pelvis_ty	pelvis_tz	hip_flexion_r	hip_adduction_r	hip_rotation_r	knee_angle_r	ankle_angle_r	subtalar_angle_r	hip_flexion_l	hip_adduction_l	hip_rotation_l	knee_angle_l	ankle_angle_l	subtalar_angle_l	lumbar_extension	lumbar_bending	lumbar_rotation
      1.97000000	      7.20302812	     -4.89453433	     79.75214859	      0.95844960	      0.93556727	      0.38319496	     28.20334131	      0.87717273	     -4.88652401	    -29.88929849	      2.77064576	      9.83297735	     -6.23242944	     -7.01156370	     24.85419735	    -42.92764377	     -1.81453473	     10.70040840	     -0.85524964	      5.51224072	    -10.99082756
      1.98000000	      7.61980177	     -5.24279532	     80.17611563	      0.96414626	      0.93638301	      0.37571871	     27.87607140	      1.51310135	     -5.31094410	    -29.85919687	      3.39166329	      9.53179454	     -3.63380887	     -7.35945930	     23.21841702	    -46.46941426	     -2.61870085	     10.34562129	     -0.58175042	      6.01392814	    -10.70125898
      1.99000000	      8.05320362	     -5.56788526	     80.58181363	      0.96981406	      0.93733213	      0.36836685	     27.46149899	      2.19707563	     -5.67890254	    -29.68130923	      3.92886135	      9.16195749	     -1.10394146	     -7.78908654	     21.76456200	    -49.73142570	     -3.12573941	      9.51577257	     -0.33905664	      6.50744917	    -10.41191983
      2.00000000	      8.50645014	     -5.83519943	     80.94428761	      0.97544014	      0.93844548	      0.36105688	     26.93906781	      2.92184347	     -6.00731470	    -29.39159493	      4.38632629	      8.78753449	      1.27092113	     -8.26448357	     20.47909042	    -52.66550096	     -3.26832554	      8.22816913	     -0.16196035	      6.99758126	    -10.06638578
      2.01000000	      8.94349507	     -6.04210805	     81.25481714	      0.98096348	      0.93970502	      0.35376356	     26.32019394	      3.64411890	     -6.28157224	    -29.00922763	      4.78111776	      8.45027925	      3.47694184	     -8.71845052	     19.33922594	    -55.25672744	     -3.03483687	      6.61057167	     -0.04632586	      7.45121927	     -9.67175978
      2.02000000	      9.34128018	     -6.20245108	     81.52469853	      0.98630066	      0.94106664	      0.34647036	     25.63026336	      4.32587572	     -6.52167981	    -28.55452292	      5.11730802	      8.16442761	      5.53499645	     -9.10201669	     18.33086805	    -57.51211417	     -2.48582498	      4.81221947	      0.02905432	      7.85451081	     -9.24300208
      2.03000000	      9.68565893	     -6.31884716	     81.74297741	      0.99142572	      0.94250771	      0.33915977	     24.87798408	      4.95267018	     -6.71676244	    -28.04237192	      5.41526319	      7.92463396	      7.44125089	     -9.38763132	     17.40680058	    -59.42716636	     -1.70966815	      2.93933584	      0.06787104	      8.19816207	     -8.77061080
      2.04000000	      9.98024826	     -6.41183092	     81.94434302	      0.99626860	      0.94396217	      0.33185608	     24.08930254	      5.51308494	     -6.89237743	    -27.48491991	      5.70038239	      7.74099833	      9.23761290	     -9.56793376	     16.57663917	    -61.02456521	     -0.77984123	      1.20251673	      0.09240189	      8.49644291	     -8.30574058
      2.05000000	     10.19672752	     -6.46609604	     82.09054637	      1.00085229	      0.94544912	      0.32451603	     23.25451313	      5.98855133	     -7.01224606	    -26.89457140	      5.95705244	      7.59664664	     10.87475037	     -9.60603663	     15.78202543	    -62.27750815	      0.26354195	     -0.40131056	      0.08912147	      8.71739574	     -7.78570157
      2.06000000	     10.34902151	     -6.49864182	     82.21671374	      1.00514550	      0.94691312	      0.31718095	     22.40090575	      6.38055518	     -7.10826371	    -26.28963142	      6.20585008	      7.50103779	     12.39446878	     -9.51091565	     15.04663953	    -63.21757176	      1.35407734	     -1.69847447	      0.07014260	      8.88144536	     -7.26370449
      2.07000000	     10.44327152	     -6.51801028	     82.32862269	      1.00915974	      0.94833351	      0.30985262	     21.53462537	      6.69793998	     -7.17702644	    -25.66693403	      6.44453463	      7.45060747	     13.80774597	     -9.29447218	     14.35742146	    -63.85279412	      2.45174789	     -2.64787270	      0.04429942	      8.99596644	     -6.74511334
      2.08000000	     10.47295327	     -6.50849698	     82.42560693	      1.01289840	      0.94968971	      0.30252817	     20.66337906	      6.92327792	     -7.25512005	    -25.07156962	      6.69987007	      7.43062478	     15.10213812	     -8.94825091	     13.70628516	    -64.20322996	      3.53849197	     -3.31590313	     -0.00460074	      9.04856872	     -6.21207220
      2.09000000	     10.46067636	     -6.48767884	     82.52664635	      1.01637417	      0.95094433	      0.29524005	     19.80512147	      7.08119944	     -7.35178315	    -24.50203439	      6.96904062	      7.42863370	     16.31640173	     -8.51151868	     13.09696647	    -64.29913044	      4.60524185	     -3.58170389	     -0.06298100	      9.06373475	     -5.67610778
      2.10000000	     10.41396357	     -6.46011147	     82.63502015	      1.01961961	      0.95210325	      0.28795181	     18.94510700	      7.18840710	     -7.44538327	    -23.92868617	      7.24435459	      7.44324219	     17.45567609	     -8.01518594	     12.50496200	    -64.14835608	      5.61293341	     -3.71320603	     -0.11984449	      9.04745807	     -5.17433436
      2.11000000	     10.34635353	     -6.41401535	     82.74069144	      1.02269236	      0.95316955	      0.28069272	     18.08297637	      7.26424871	     -7.52056098	    -23.37427279	      7.52774906	      7.48542565	     18.52024599	     -7.49870407	     11.90675942	    -63.78324142	      6.56272904	     -3.58998838	     -0.19550694	      9.00514844	     -4.67215942
      2.12000000	     10.26992869	     -6.36407971	     82.87401986	      1.02557327	      0.95411318	      0.27346243	     17.22877872	      7.31490154	     -7.60918346	    -22.83035654	      7.81360633	      7.53788885	     19.54897685	     -6.98440880	     11.31929047	    -63.24329684	      7.45093742	     -3.15609179	     -0.26974688	      8.95324752	     -4.22538509
      2.13000000	     10.20520482	     -6.32373934	     83.03744652	      1.02832332	      0.95491000	      0.26628359	     16.40809663	      7.36609635	     -7.73176894	    -22.31625898	      8.09699919	      7.56457898	     20.56646220	     -6.52187616	     10.72541997	    -62.55724788	      8.25458475	     -2.62451277	     -0.33091578	      8.90689251	     -3.81571495
      2.14000000	     10.15091221	     -6.28007747	     83.22401913	      1.03094124	      0.95558481	      0.25913690	     15.60064506	      7.42154994	     -7.84978732	    -21.82667149	      8.37671345	      7.56461371	     21.55878366	     -6.11775458	     10.11244284	    -61.74236920	      8.94665278	     -2.10752182	     -0.39304454	      8.86691813	     -3.43044045
      2.15000000	     10.11784578	     -6.23692401	     83.44992460	      1.03344769	      0.95612436	      0.25203227	     14.80946652	      7.49130976	     -7.99627016	    -21.35705116	      8.65240928	      7.54496407	     22.54429760	     -5.79098706	      9.48820548	    -60.83307425	      9.53930513	     -1.64403143	     -0.45219271	      8.84035964	     -3.09162478
      2.16000000	     10.10664608	     -6.18830693	     83.69842059	      1.03585720	      0.95654446	      0.24494670	     14.03232781	      7.57731837	     -8.16797858	    -20.91920871	      8.93398599	      7.51102892	     23.50746870	     -5.55161499	      8.83775692	    -59.83650021	     10.03901193	     -1.33829195	     -0.51376560	      8.82973791	     -2.77000600
      2.17000000	     10.10952186	     -6.13438833	     83.99918007	      1.03812666	      0.95685468	      0.23787552	     13.24277398	      7.67455204	     -8.34609137	    -20.46091688	      9.21070382	      7.47097937	     24.46399824	     -5.36781152	      8.20842484	    -58.78135826	     10.42554304	     -1.05242612	     -0.57221327	      8.82580651	     -2.52524795
      2.18000000	     10.12984340	     -6.08009437	     84.31123796	      1.04028909	      0.95703285	      0.23081013	     12.47476157	      7.78493083	     -8.54839794	    -20.03916715	      9.51370786	      7.44207224	     25.40180808	     -5.25678605	      7.56458771	    -57.66851352	     10.74455307	     -0.97581687	     -0.62697937	      8.83735153	     -2.29173456
      2.19000000	     10.15577620	     -6.00304078	     84.64079415	      1.04233014	      0.95714475	      0.22371789	     11.67441263	      7.90023382	     -8.74628211	    -19.60011202	      9.82988285	      7.42890050	     26.28623013	     -5.18479498	      6.93643122	    -56.48587147	     10.96328417	     -0.95897997	     -0.69913337	      8.84702566	     -2.08154597
      2.20000000	     10.18347379	     -5.91036098	     84.97443967	      1.04424322	      0.95717181	      0.21659390	     10.85548070	      8.01521036	     -8.94399083	    -19.15678738	     10.16492739	      7.44443262	     27.11969008	     -5.14442708	      6.30952133	    -55.23603138	     11.09651099	     -1.04145325	     -0.78182259	      8.85494382	     -1.88725370
      2.21000000	     10.20856747	     -5.80267414	     85.30630436	      1.04603991	      0.95712903	      0.20942259	     10.01211450	      8.12710279	     -9.13515568	    -18.70079656	     10.51508028	      7.49545261	     27.88745256	     -5.12205168	      5.69200210	    -53.90173160	     11.14247212	     -1.22676142	     -0.87333237	      8.85507489	     -1.69559924
      2.22000000	     10.22948353	     -5.68010691	     85.63297830	      1.04770433	      0.95701715	      0.20217609	      9.14113560	      8.23331996	     -9.31825832	    -18.22996700	     10.86757701	      7.57160128	     28.58451193	     -5.11241813	      5.07336578	    -52.48182351	     11.10733870	     -1.47825462	     -0.96934659	      8.84983827	     -1.51734247
      2.23000000	     10.24888810	     -5.55669896	     85.95449687	      1.04925886	      0.95683205	      0.19487064	      8.25847749	      8.34039410	     -9.49689038	    -17.74504120	     11.20849277	      7.65142856	     29.21750106	     -5.10796199	      4.47999718	    -50.96592327	     10.99497805	     -1.73944264	     -1.05674360	      8.83868113	     -1.34218702
      2.24000000	     10.26813811	     -5.43635324	     86.26788412	      1.05070294	      0.95656539	      0.18749261	      7.36533587	      8.45012217	     -9.66244982	    -17.24434190	     11.54730872	      7.72621960	     29.78531480	     -5.10456460	      3.92571926	    -49.35266068	     10.82102770	     -2.00171127	     -1.13035154	      8.82492692	     -1.15945755
      2.25000000	     10.27362048	     -5.31068272	     86.57454726	      1.05201825	      0.95623805	      0.18003017	      6.45868218	      8.54476144	     -9.84142134	    -16.73500546	     11.83457186	      7.75553467	     30.28077955	     -5.09300033	      3.38416889	    -47.64451211	     10.54953270	     -2.14902378	     -1.19539233	      8.79651308	     -1.00013822
